# xmcd
#
# Track frame offsets:
#	150
#	22007
#	49142
#	67998
#	94236
#	114631
#	144205
#	161579
#	191784
#	209744
#	233783
#	264380
#	281460
#	300399
#
# Disc length: 4356 seconds
#
# Revision: 0
# Processed by: cddbd v1.5.2PL0 Copyright (c) Steve Scherf et al.
# Submitted via: EasyCDDAExtractor 10.0.2.1
#
DISCID=c711020e
DTITLE=Various Artist - Old School Rave Sessions [CD1)
DYEAR=2007
DGENRE=Rave
TTITLE0=B-Sides - The Tape (remixed)
TTITLE1=Kick Squad - Soundclash (Champion Sound) (Hypermix)
TTITLE2=Problem House - The Party Zone
TTITLE3=Joey Beltram - Energy Flash
TTITLE4=Second Phase - Mentasm
TTITLE5=The House Crew - Keep The Fire Burning
TTITLE6=Shut Up And Dance - Derek Went Mad
TTITLE7=The Scientist - The Exoircist
TTITLE8=Sonic Experience - Protien
TTITLE9=Geneside II - Death Of The Kamikazee (Inbetween Minds Remix)
TTITLE10=Quadrophonia - Quadrophonia
TTITLE11=Altern8 - Infiltrate 202
TTITLE12=Wiz - Piano
TTITLE13=True Faith ft Bridget Grace - Take Me Away
EXTD=
EXTT0=
EXTT1=
EXTT2=
EXTT3=
EXTT4=
EXTT5=
EXTT6=
EXTT7=
EXTT8=
EXTT9=
EXTT10=
EXTT11=
EXTT12=
EXTT13=
PLAYORDER=
